<svg height="379pt" viewBox="-32 0 379 379.21621" width="379pt" xmlns="http://www.w3.org/2000/svg"><path d="m308.785156 53.550781c-4.101562-4.097656-9.566406-6.347656-15.339844-6.214843-5.796874.085937-11.175781 2.453124-15.148437 6.675781l-50.667969 53.832031c-6.910156-3.726562-14.191406-6.699219-21.710937-8.902344 14.410156-9.722656 23.90625-26.203125 23.90625-44.859375 0-29.824219-24.261719-54.082031-54.082031-54.082031-29.828126 0-54.085938 24.261719-54.085938 54.082031 0 18.316407 9.171875 34.507813 23.140625 44.292969-47.859375 12.988281-83.214844 56.691406-83.214844 108.609375v77.289063l-55.664062 59.144531c-7.914063 8.414062-7.71875 21.402343.445312 29.582031 4.019531 4.015625 9.339844 6.214844 15.007813 6.214844h.332031c5.792969-.089844 11.175781-2.457032 15.148437-6.679688l15.46875-16.4375c-.261718 5.804688 1.835938 11.675782 6.214844 16.058594 3.96875 3.960938 9.261719 6.136719 14.789063 6.136719.71875 0 1.441406-.035157 2.167969-.109375 6.296874-.648438 11.910156-4.0625 15.394531-9.371094 3.722656-5.691406 7.925781-10.953125 12.53125-15.75h154.59375c3.578125 3.703125 6.941406 7.652344 9.988281 11.894531 3.507812 4.878907 8.988281 7.960938 15.027344 8.453125 6.226562.503906 12.253906-1.71875 16.640625-6.109375 7.347656-7.347656 8.28125-18.773437 2.21875-27.167969-4.621094-6.394531-9.746094-12.316406-15.230469-17.828124.058594-.355469.210938-.671876.210938-1.039063v-114.28125c0-26.496094-9.363282-51.917969-26.289063-72.152344l48.664063-51.703125c7.914062-8.417968 7.714843-21.410156-.457032-29.578125zm-173.472656.535157c0-22.292969 18.140625-40.429688 40.429688-40.429688 22.292968 0 40.429687 18.136719 40.429687 40.429688 0 21.800781-17.355469 39.578124-38.96875 40.355468-.992187-.023437-1.984375-.09375-2.976563-.09375-.3125 0-.609374.042969-.917968.042969-21.160156-1.269531-37.996094-18.835937-37.996094-40.304687zm-60.074219 152.898437c0-54.269531 43.914063-98.4375 98.066407-98.9375.816406.035156 1.613281.121094 2.4375.121094.496093 0 .972656-.058594 1.460937-.074219 14.167969.429688 28.082031 3.855469 40.714844 10.074219l-142.683594 151.601562v-62.785156zm44.175781 132.425781c17.734376-12.382812 39.015626-19.28125 61.335938-19.28125 22.105469 0 43.429688 6.925782 61.222656 19.28125zm170.597657 18.234375c-1.554688 1.546875-3.648438 2.332031-5.878907 2.160157-1.203124-.097657-3.453124-.597657-5.046874-2.8125-22.734376-31.632813-59.496094-50.515626-98.335938-50.515626-40.9375 0-78.800781 20.507813-101.285156 54.855469-1.222656 1.851563-3.171875 3.042969-5.375 3.273438-2.105469.226562-4.332032-.535157-6.023438-2.238281-2.480468-2.46875-2.875-6.394532-.941406-9.328126 25.253906-38.40625 67.734375-61.335937 113.625-61.335937 43.386719 0 84.535156 21.09375 110.066406 56.425781 2.082032 2.882813 1.734375 6.976563-.804687 9.515625zm-16.800781-150.660156v103.335937c-26.109376-20.589843-58.648438-32.269531-92.460938-32.269531-25.933594 0-50.855469 6.691407-72.746094 18.886719l143.144532-152.089844c14.207031 17.574219 22.0625 39.402344 22.0625 62.136719zm26.082031-133.214844-272.390625 289.410157c-1.410156 1.507812-3.339844 2.355468-5.40625 2.386718-2-.117187-4.019532-.761718-5.480469-2.222656-2.910156-2.917969-2.984375-7.558594-.152344-10.5625l272.378907-289.410156c1.414062-1.507813 3.34375-2.351563 5.410156-2.386719h.117187c2.027344 0 3.929688.789063 5.363281 2.226563 2.917969 2.914062 2.992188 7.554687.160157 10.558593zm0 0"/></svg>